<svg width="257" height="49" viewBox="0 0 257 49" fill="none" xmlns="http://www.w3.org/2000/svg">
<path d="M248.618 1.5999L255.203 7.94957V40.2253L248.618 46.5747H8.95686L2.3719 40.2253V35.9213L3.70985 35.2294V39.6911L9.51093 45.2846H248.064L253.865 39.6911V8.48357L248.064 2.89024H9.51093L3.70985 8.48357V35.2294L2.3719 35.9213V7.94957L8.95686 1.5999H248.618Z" fill="#D6A354"/>
<path d="M254.534 0.0947266L252.304 2.24516L254.534 4.3956L256.764 2.24516L254.534 0.0947266Z" fill="#D6A354"/>
<path d="M254.534 43.7793L252.304 45.9297L254.534 48.0801L256.764 45.9297L254.534 43.7793Z" fill="#D6A354"/>
<path d="M2.23018 0.0947266L0 2.24516L2.23018 4.3956L4.46037 2.24516L2.23018 0.0947266Z" fill="#D6A354"/>
<path d="M2.23018 43.7793L0 45.9297L2.23018 48.0801L4.46037 45.9297L2.23018 43.7793Z" fill="#D6A354"/>
</svg>
